<svg width="20" height="20" viewBox="0 0 20 20" fill="none" xmlns="http://www.w3.org/2000/svg">
<path d="M6.71428 1H3C1.89543 1 1 1.89543 1 3V6.2C1 7.30457 1.89543 8.2 3 8.2H6.71429C7.81886 8.2 8.71429 7.30457 8.71429 6.2V3C8.71429 1.89543 7.81885 1 6.71428 1Z" stroke="#939292" stroke-linecap="round"/>
<path d="M16.9999 1H13.2856C12.1811 1 11.2856 1.89543 11.2856 3V6.2C11.2856 7.30457 12.1811 8.2 13.2856 8.2H16.9999C18.1045 8.2 18.9999 7.30457 18.9999 6.2V3C18.9999 1.89543 18.1045 1 16.9999 1Z" stroke="#939292" stroke-linecap="round"/>
<path d="M6.71428 11.8H3C1.89543 11.8 1 12.6955 1 13.8V17C1 18.1046 1.89543 19 3 19H6.71429C7.81886 19 8.71429 18.1046 8.71429 17V13.8C8.71429 12.6955 7.81885 11.8 6.71428 11.8Z" stroke="#939292" stroke-linecap="round"/>
<path d="M16.9999 11.8H13.2856C12.1811 11.8 11.2856 12.6955 11.2856 13.8V17C11.2856 18.1046 12.1811 19 13.2856 19H16.9999C18.1045 19 18.9999 18.1046 18.9999 17V13.8C18.9999 12.6955 18.1045 11.8 16.9999 11.8Z" stroke="#939292" stroke-linecap="round"/>
</svg>
